<svg xmlns="http://www.w3.org/2000/svg" xmlns:xlink="http://www.w3.org/1999/xlink" width="358" zoomAndPan="magnify"
     viewBox="0 0 268.5 30.000001" height="40" preserveAspectRatio="xMidYMid meet" version="1.0">
    <defs>
        <g/>
        <clipPath id="1774166e60">
            <path d="M 86 2 L 112 2 L 112 28 L 86 28 Z M 86 2 " clip-rule="nonzero"/>
        </clipPath>
        <clipPath id="f39bead2c6">
            <path d="M 88.808594 0.84375 L 113.265625 4.449219 L 109.660156 28.910156 L 85.199219 25.300781 Z M 88.808594 0.84375 "
                  clip-rule="nonzero"/>
        </clipPath>
        <clipPath id="733775ab6c">
            <path d="M 88.808594 0.84375 L 113.265625 4.449219 L 109.660156 28.910156 L 85.199219 25.300781 Z M 88.808594 0.84375 "
                  clip-rule="nonzero"/>
        </clipPath>
        <clipPath id="19501abb89">
            <path d="M 101.039062 2.644531 C 107.792969 3.640625 112.460938 9.925781 111.464844 16.679688 C 110.464844 23.433594 104.183594 28.101562 97.429688 27.105469 C 90.675781 26.109375 86.007812 19.824219 87.003906 13.070312 C 88 6.316406 94.285156 1.648438 101.039062 2.644531 "
                  clip-rule="nonzero"/>
        </clipPath>
        <clipPath id="2ad0a8b083">
            <path d="M 95 16 L 102 16 L 102 23 L 95 23 Z M 95 16 " clip-rule="nonzero"/>
        </clipPath>
        <clipPath id="d3a1a689e2">
            <path d="M 96.027344 16.480469 L 101.996094 17.359375 L 101.117188 23.332031 L 95.144531 22.449219 Z M 96.027344 16.480469 "
                  clip-rule="nonzero"/>
        </clipPath>
        <clipPath id="927008b362">
            <path d="M 99.011719 16.921875 C 97.363281 16.675781 95.828125 17.816406 95.585938 19.464844 C 95.34375 21.113281 96.480469 22.648438 98.132812 22.890625 C 99.78125 23.132812 101.3125 21.996094 101.558594 20.347656 C 101.800781 18.695312 100.660156 17.164062 99.011719 16.921875 "
                  clip-rule="nonzero"/>
        </clipPath>
        <clipPath id="a5a56548a3">
            <path d="M 97 7 L 104 7 L 104 14 L 97 14 Z M 97 7 " clip-rule="nonzero"/>
        </clipPath>
        <clipPath id="5ebf97e727">
            <path d="M 97.484375 6.597656 L 103.457031 7.476562 L 102.574219 13.449219 L 96.601562 12.566406 Z M 97.484375 6.597656 "
                  clip-rule="nonzero"/>
        </clipPath>
        <clipPath id="59af2c1bf1">
            <path d="M 100.46875 7.035156 C 98.820312 6.792969 97.289062 7.933594 97.042969 9.582031 C 96.800781 11.230469 97.941406 12.765625 99.589844 13.007812 C 101.238281 13.25 102.773438 12.113281 103.015625 10.460938 C 103.257812 8.8125 102.117188 7.28125 100.46875 7.035156 "
                  clip-rule="nonzero"/>
        </clipPath>
        <clipPath id="0fc1f88365">
            <path d="M 91 11 L 98 11 L 98 18 L 91 18 Z M 91 11 " clip-rule="nonzero"/>
        </clipPath>
        <clipPath id="247738b022">
            <path d="M 91.855469 10.816406 L 97.828125 11.695312 L 96.945312 17.667969 L 90.972656 16.785156 Z M 91.855469 10.816406 "
                  clip-rule="nonzero"/>
        </clipPath>
        <clipPath id="f80ad589a0">
            <path d="M 94.839844 11.253906 C 93.191406 11.011719 91.660156 12.152344 91.414062 13.800781 C 91.171875 15.449219 92.3125 16.984375 93.960938 17.226562 C 95.609375 17.46875 97.144531 16.332031 97.386719 14.679688 C 97.628906 13.03125 96.488281 11.5 94.839844 11.253906 "
                  clip-rule="nonzero"/>
        </clipPath>
        <clipPath id="2b23310136">
            <path d="M 101 12 L 108 12 L 108 19 L 101 19 Z M 101 12 " clip-rule="nonzero"/>
        </clipPath>
        <clipPath id="a6a1ce3014">
            <path d="M 101.65625 12.261719 L 107.625 13.140625 L 106.746094 19.113281 L 100.773438 18.230469 Z M 101.65625 12.261719 "
                  clip-rule="nonzero"/>
        </clipPath>
        <clipPath id="ca93e687d5">
            <path d="M 104.640625 12.703125 C 102.992188 12.457031 101.457031 13.597656 101.214844 15.246094 C 100.972656 16.894531 102.109375 18.429688 103.761719 18.671875 C 105.410156 18.914062 106.941406 17.777344 107.1875 16.128906 C 107.429688 14.476562 106.289062 12.945312 104.640625 12.703125 "
                  clip-rule="nonzero"/>
        </clipPath>
    </defs>
    <g fill="#030820" fill-opacity="1">
        <g transform="translate(115.532288, 18.240058)">
            <g>
                <path d="M 1.4375 0 L 1.4375 -11.453125 L 3.875 -11.453125 L 3.875 -2 L 8.515625 -2 L 8.515625 0 Z M 1.4375 0 "/>
            </g>
        </g>
    </g>
    <g fill="#030820" fill-opacity="1">
        <g transform="translate(123.566227, 18.240058)">
            <g>
                <path d="M 11.84375 -5.75 C 11.84375 -3.851562 11.367188 -2.394531 10.421875 -1.375 C 9.484375 -0.351562 8.140625 0.15625 6.390625 0.15625 C 4.628906 0.15625 3.28125 -0.351562 2.34375 -1.375 C 1.40625 -2.394531 0.9375 -3.859375 0.9375 -5.765625 C 0.9375 -7.671875 1.40625 -9.125 2.34375 -10.125 C 3.289062 -11.132812 4.644531 -11.640625 6.40625 -11.640625 C 8.164062 -11.640625 9.507812 -11.128906 10.4375 -10.109375 C 11.375 -9.097656 11.84375 -7.644531 11.84375 -5.75 Z M 3.484375 -5.75 C 3.484375 -4.46875 3.722656 -3.5 4.203125 -2.84375 C 4.691406 -2.195312 5.421875 -1.875 6.390625 -1.875 C 8.328125 -1.875 9.296875 -3.164062 9.296875 -5.75 C 9.296875 -8.320312 8.332031 -9.609375 6.40625 -9.609375 C 5.4375 -9.609375 4.707031 -9.28125 4.21875 -8.625 C 3.726562 -7.976562 3.484375 -7.019531 3.484375 -5.75 Z M 3.484375 -5.75 "/>
            </g>
        </g>
    </g>
    <g fill="#030820" fill-opacity="1">
        <g transform="translate(135.30428, 18.240058)">
            <g>
                <path d="M 3.875 -6.0625 L 4.671875 -6.0625 C 5.421875 -6.0625 5.976562 -6.207031 6.34375 -6.5 C 6.71875 -6.800781 6.90625 -7.234375 6.90625 -7.796875 C 6.90625 -8.367188 6.75 -8.789062 6.4375 -9.0625 C 6.125 -9.332031 5.632812 -9.46875 4.96875 -9.46875 L 3.875 -9.46875 Z M 9.359375 -7.875 C 9.359375 -6.644531 8.972656 -5.703125 8.203125 -5.046875 C 7.429688 -4.398438 6.332031 -4.078125 4.90625 -4.078125 L 3.875 -4.078125 L 3.875 0 L 1.4375 0 L 1.4375 -11.453125 L 5.09375 -11.453125 C 6.488281 -11.453125 7.546875 -11.148438 8.265625 -10.546875 C 8.992188 -9.953125 9.359375 -9.0625 9.359375 -7.875 Z M 9.359375 -7.875 "/>
            </g>
        </g>
    </g>
    <g fill="#030820" fill-opacity="1">
        <g transform="translate(144.348431, 18.240058)">
            <g>
                <path d="M 5.796875 -6.4375 L 10.328125 -6.4375 L 10.328125 -0.5 C 9.597656 -0.257812 8.90625 -0.09375 8.25 0 C 7.601562 0.101562 6.941406 0.15625 6.265625 0.15625 C 4.535156 0.15625 3.210938 -0.347656 2.296875 -1.359375 C 1.390625 -2.378906 0.9375 -3.84375 0.9375 -5.75 C 0.9375 -7.59375 1.460938 -9.03125 2.515625 -10.0625 C 3.578125 -11.101562 5.046875 -11.625 6.921875 -11.625 C 8.097656 -11.625 9.226562 -11.390625 10.3125 -10.921875 L 9.515625 -8.96875 C 8.679688 -9.382812 7.8125 -9.59375 6.90625 -9.59375 C 5.851562 -9.59375 5.007812 -9.238281 4.375 -8.53125 C 3.75 -7.832031 3.4375 -6.890625 3.4375 -5.703125 C 3.4375 -4.453125 3.6875 -3.5 4.1875 -2.84375 C 4.695312 -2.1875 5.441406 -1.859375 6.421875 -1.859375 C 6.921875 -1.859375 7.429688 -1.910156 7.953125 -2.015625 L 7.953125 -4.40625 L 5.796875 -4.40625 Z M 5.796875 -6.4375 "/>
            </g>
        </g>
    </g>
    <g fill="#030820" fill-opacity="1">
        <g transform="translate(154.935313, 18.240058)">
            <g>
                <path d="M 8.453125 0 L 7.625 -2.734375 L 3.453125 -2.734375 L 2.609375 0 L 0 0 L 4.046875 -11.5 L 7.015625 -11.5 L 11.078125 0 Z M 7.046875 -4.765625 C 6.273438 -7.234375 5.84375 -8.628906 5.75 -8.953125 C 5.65625 -9.273438 5.585938 -9.53125 5.546875 -9.71875 C 5.367188 -9.050781 4.875 -7.398438 4.0625 -4.765625 Z M 7.046875 -4.765625 "/>
            </g>
        </g>
    </g>
    <g fill="#030820" fill-opacity="1">
        <g transform="translate(164.974019, 18.240058)">
            <g>
                <path d="M 6.296875 0 L 3.53125 -8.984375 L 3.46875 -8.984375 C 3.5625 -7.160156 3.609375 -5.941406 3.609375 -5.328125 L 3.609375 0 L 1.4375 0 L 1.4375 -11.453125 L 4.75 -11.453125 L 7.453125 -2.703125 L 7.5 -2.703125 L 10.375 -11.453125 L 13.6875 -11.453125 L 13.6875 0 L 11.421875 0 L 11.421875 -5.421875 C 11.421875 -5.679688 11.425781 -5.976562 11.4375 -6.3125 C 11.445312 -6.644531 11.484375 -7.53125 11.546875 -8.96875 L 11.46875 -8.96875 L 8.515625 0 Z M 6.296875 0 "/>
            </g>
        </g>
    </g>
    <g fill="#030820" fill-opacity="1">
        <g transform="translate(179.069241, 18.240058)">
            <g>
                <path d="M 8.046875 0 L 1.4375 0 L 1.4375 -11.453125 L 8.046875 -11.453125 L 8.046875 -9.46875 L 3.875 -9.46875 L 3.875 -6.953125 L 7.75 -6.953125 L 7.75 -4.953125 L 3.875 -4.953125 L 3.875 -2 L 8.046875 -2 Z M 8.046875 0 "/>
            </g>
        </g>
    </g>
    <g clip-path="url(#1774166e60)">
        <g clip-path="url(#f39bead2c6)">
            <g clip-path="url(#733775ab6c)">
                <g clip-path="url(#19501abb89)">
                    <path stroke-linecap="butt"
                          transform="matrix(0.7151, 0.105493, -0.105493, 0.7151, 88.808561, 0.84182)" fill="none"
                          stroke-linejoin="miter"
                          d="M 17.102884 -0.00213681 C 26.547531 -0.00249028 34.205194 7.65703 34.205547 17.101677 C 34.200554 26.547112 26.54638 34.203987 17.101733 34.20434 C 7.657087 34.204694 -0.000576473 26.545173 -0.000929938 17.100527 C -0.0012834 7.65588 7.658237 -0.00178335 17.102884 -0.00213681 "
                          stroke="#edc000" stroke-width="2" stroke-opacity="1" stroke-miterlimit="4"/>
                </g>
            </g>
        </g>
    </g>
    <g clip-path="url(#2ad0a8b083)">
        <g clip-path="url(#d3a1a689e2)">
            <g clip-path="url(#927008b362)">
                <path fill="#edc000"
                      d="M 96.027344 16.480469 L 101.996094 17.359375 L 101.117188 23.332031 L 95.144531 22.449219 Z M 96.027344 16.480469 "
                      fill-opacity="1" fill-rule="nonzero"/>
            </g>
        </g>
    </g>
    <g clip-path="url(#a5a56548a3)">
        <g clip-path="url(#5ebf97e727)">
            <g clip-path="url(#59af2c1bf1)">
                <path fill="#edc000"
                      d="M 97.484375 6.597656 L 103.457031 7.476562 L 102.574219 13.449219 L 96.601562 12.566406 Z M 97.484375 6.597656 "
                      fill-opacity="1" fill-rule="nonzero"/>
            </g>
        </g>
    </g>
    <g clip-path="url(#0fc1f88365)">
        <g clip-path="url(#247738b022)">
            <g clip-path="url(#f80ad589a0)">
                <path fill="#edc000"
                      d="M 91.855469 10.816406 L 97.828125 11.695312 L 96.945312 17.667969 L 90.972656 16.785156 Z M 91.855469 10.816406 "
                      fill-opacity="1" fill-rule="nonzero"/>
            </g>
        </g>
    </g>
    <g clip-path="url(#2b23310136)">
        <g clip-path="url(#a6a1ce3014)">
            <g clip-path="url(#ca93e687d5)">
                <path fill="#edc000"
                      d="M 101.65625 12.261719 L 107.625 13.140625 L 106.746094 19.113281 L 100.773438 18.230469 Z M 101.65625 12.261719 "
                      fill-opacity="1" fill-rule="nonzero"/>
            </g>
        </g>
    </g>
</svg>